<?xml version="1.0" encoding="UTF-8" standalone="no"?>
<svg
   width="1837.6449pt"
   height="339.00003pt"
   viewBox="0 0 1837.6449 338.99974"
   version="1.1"
   id="svg2"
   inkscape:version="1.3.2 (091e20ef0f, 2023-11-25, custom)"
   sodipodi:docname="Qt_logo_2016.svg"
   xmlns:inkscape="http://www.inkscape.org/namespaces/inkscape"
   xmlns:sodipodi="http://sodipodi.sourceforge.net/DTD/sodipodi-0.dtd"
   xmlns="http://www.w3.org/2000/svg"
   xmlns:svg="http://www.w3.org/2000/svg"
   xmlns:rdf="http://www.w3.org/1999/02/22-rdf-syntax-ns#"
   xmlns:cc="http://creativecommons.org/ns#"
   xmlns:dc="http://purl.org/dc/elements/1.1/">
  <metadata
     id="metadata20">
    <rdf:RDF>
      <cc:Work
         rdf:about="">
        <dc:format>image/svg+xml</dc:format>
        <dc:type
           rdf:resource="http://purl.org/dc/dcmitype/StillImage" />
      </cc:Work>
    </rdf:RDF>
  </metadata>
  <defs
     id="defs18">
    <rect
       x="264.25504"
       y="728.68762"
       width="3666.4209"
       height="1254.2715"
       id="rect3" />
    <rect
       x="338.00092"
       y="875.09259"
       width="2606.8147"
       height="819.9776"
       id="rect1" />
  </defs>
  <sodipodi:namedview
     pagecolor="#ffffff"
     bordercolor="#666666"
     borderopacity="1"
     objecttolerance="10"
     gridtolerance="10"
     guidetolerance="10"
     inkscape:pageopacity="0"
     inkscape:pageshadow="2"
     inkscape:window-width="3440"
     inkscape:window-height="1408"
     id="namedview16"
     showgrid="false"
     inkscape:zoom="0.55693215"
     inkscape:cx="1951.7638"
     inkscape:cy="190.32839"
     inkscape:window-x="0"
     inkscape:window-y="0"
     inkscape:window-maximized="1"
     inkscape:current-layer="svg2"
     inkscape:showpageshadow="2"
     inkscape:pagecheckerboard="0"
     inkscape:deskcolor="#d1d1d1"
     inkscape:document-units="pt" />
  <path
     fill="#41cd52"
     d="M 63.5,1.2152557e-5 H 462 V 274.79001 c -21.4,21.47 -42.87,42.87 -64.39,64.21 H 0 V 63.390012 c 21.08,-21.21 42.34,-42.26 63.5,-63.389999847443 z"
     id="path6"
     style="fill:#e7352c;fill-opacity:1" />
  <path
     fill="#41cd52"
     d="m 160.51,87.700012 c 10.29,-1.34 21.09,-0.98 30.83,2.91 7.89,3.12 14.59,9.23 18.13,16.969998 5.43,11.73 7.51,24.68 8.56,37.47 1.14,17.02 0.98,34.2 -1.37,51.12 -1.65,10.07 -4,20.68 -10.82,28.62 -6.92,7.97 -17.59,11.39 -27.83,12.19 -10.8,0.79 -22.19,0 -31.94,-5.11 -5.69,-3.03 -10.52,-7.78 -13.34,-13.6 -3.42,-6.97 -5.3,-14.58 -6.62,-22.2 -3.98,-24.16 -4.94,-49.16 0.5,-73.18 2.24,-9.06 5.5,-18.36 12.12,-25.189998 5.76,-5.85 13.78,-8.87 21.78,-10 z"
     id="path12"
     style="fill:#e7352c;fill-opacity:1" />
  <text
     xml:space="preserve"
     transform="matrix(0.75,0,0,0.75,0,1.2152557e-5)"
     id="text1"
     style="font-size:229.531px;font-family:'FantasqueSansM Nerd Font';-inkscape-font-specification:'FantasqueSansM Nerd Font, Normal';white-space:pre;shape-inside:url(#rect1);display:inline;fill:#e7352c;fill-opacity:1;stroke:#000000;stroke-width:3.77953;stroke-linecap:round;stroke-linejoin:round" />
  <rect
     style="fill:#e7352c;fill-opacity:1;stroke:#e7352c;stroke-width:5.28882;stroke-linecap:round;stroke-linejoin:round;stroke-opacity:1"
     id="rect4"
     width="1392.2928"
     height="333.71118"
     x="379.40274"
     y="2.6444328" />
  <path
     fill="#41cd52"
     d="m 1439.1449,0 h 398.5 v 274.79 c -21.4,21.47 -42.87,42.87 -64.39,64.21 h -397.61 V 63.389999 c 21.08,-21.21 42.34,-42.26 63.5,-63.389999 z"
     id="path6-7"
     style="fill:#e7352c;fill-opacity:1" />
  <text
     xml:space="preserve"
     transform="matrix(0.75,0,0,0.75,-156.4195,-536.67304)"
     id="text3"
     style="font-style:normal;font-variant:normal;font-weight:normal;font-stretch:normal;font-size:400px;font-family:Titillium;-inkscape-font-specification:Titillium;white-space:pre;shape-inside:url(#rect3);display:inline;fill:#ffffff;fill-opacity:1;stroke:#ffffff;stroke-width:3.77953;stroke-linecap:round;stroke-linejoin:round;stroke-opacity:1"><tspan
       x="264.25586"
       y="1078.6875"
       id="tspan3">QtESPFlasher</tspan></text>
</svg>
